<svg xmlns="http://www.w3.org/2000/svg" width="276.02" height="251.769" viewBox="0 0 276.02 251.769"><path d="M114.512,114.534a30.358,30.358,0,0,1,4.14-10.952,23.037,23.037,0,0,1,8.143-7.8c3.312-1.888,7.453-2.769,12.559-2.9a27.106,27.106,0,0,1,8.695,1.637,22.407,22.407,0,0,1,7.177,4.532,24.106,24.106,0,0,1,4.692,6.672,20.418,20.418,0,0,1,1.932,8.057h24.7a41.736,41.736,0,0,0-3.864-16.239,37.929,37.929,0,0,0-9.661-12.714,46.014,46.014,0,0,0-14.905-8.308,57.966,57.966,0,0,0-19.183-2.9c-8.971,0-16.837,1.385-23.462,4.28A47.2,47.2,0,0,0,98.917,89.483a46.055,46.055,0,0,0-9.8,17.12,67.744,67.744,0,0,0-3.312,20.645v3.4a67.691,67.691,0,0,0,3.174,20.645,44.576,44.576,0,0,0,9.8,16.994,46.925,46.925,0,0,0,16.561,11.456,60.67,60.67,0,0,0,23.462,4.28,57.2,57.2,0,0,0,18.217-2.9,48.292,48.292,0,0,0,14.905-7.931,39.2,39.2,0,0,0,10.213-11.833,31.57,31.57,0,0,0,4.14-14.477h-24.7a16.694,16.694,0,0,1-2.07,7.3,18.884,18.884,0,0,1-4.968,5.791,22.322,22.322,0,0,1-7.177,3.777,29.809,29.809,0,0,1-8.281,1.259c-4.968-.126-9.109-1.007-12.283-2.9a23.037,23.037,0,0,1-8.143-7.8,31,31,0,0,1-4.14-11.078,77.563,77.563,0,0,1-1.1-12.588v-3.4a76.672,76.672,0,0,1,1.1-12.714ZM141.01,3C64.828,3,3,59.4,3,128.885S64.828,254.769,141.01,254.769s138.01-56.4,138.01-125.885S217.191,3,141.01,3Zm0,226.592C80.147,229.592,30.6,184.4,30.6,128.885S80.147,28.177,141.01,28.177,251.418,73.37,251.418,128.885,201.872,229.592,141.01,229.592Z" transform="translate(-3 -3)"/></svg>