<svg xmlns="http://www.w3.org/2000/svg" width="165.303" height="105.251" viewBox="0 0 165.303 105.251"><g transform="translate(0 -6.539)"><path d="M102.733,51.061l-.517-2.26H51.657V69.5H80.94C77.905,84.025,65.314,90.03,53.788,90.03c-8.394,0-16.207-2.518-22.051-8.168a31.356,31.356,0,0,1-9.331-22.729,31.4,31.4,0,0,1,8.911-22.471c5.715-5.715,13.56-8.2,22.18-8.2a27.949,27.949,0,0,1,18.758,6.812l15.5-15.4A52.469,52.469,0,0,0,52.981,6.539h0a53.537,53.537,0,0,0-38,15.433C5.133,31.819,0,45.992,0,59.165a52.958,52.958,0,0,0,14.4,36.58C24.634,106.3,39.13,111.79,54.079,111.79A48.962,48.962,0,0,0,89.69,96.842c9.04-9.492,13.689-22.632,13.689-36.386A60.519,60.519,0,0,0,102.733,51.061Z"/><path d="M75.144,30.145h-18.4v-18.4H43.5v18.4H25.1V43.382H43.5v18.4H56.742v-18.4h18.4Z" transform="translate(90.158 18.688)"/></g></svg>