<svg xmlns="http://www.w3.org/2000/svg" width="186.832" height="186.79" viewBox="0 0 186.832 186.79"><path d="M93.432,47.742a47.891,47.891,0,1,0,47.891,47.891A47.815,47.815,0,0,0,93.432,47.742Zm0,79.026a31.135,31.135,0,1,1,31.135-31.135,31.192,31.192,0,0,1-31.135,31.135Zm61.02-80.985a11.17,11.17,0,1,1-11.17-11.17A11.144,11.144,0,0,1,154.451,45.783ZM186.17,57.12c-.709-14.963-4.126-28.218-15.088-39.138-10.92-10.92-24.175-14.338-39.138-15.088-15.422-.875-61.645-.875-77.067,0C39.956,3.6,26.7,7.021,15.739,17.941S1.4,42.115.651,57.079c-.875,15.422-.875,61.645,0,77.067.709,14.963,4.126,28.218,15.088,39.138s24.175,14.338,39.138,15.088c15.422.875,61.645.875,77.067,0,14.963-.709,28.218-4.126,39.138-15.088,10.92-10.92,14.338-24.175,15.088-39.138.875-15.422.875-61.6,0-77.025Zm-19.923,93.572a31.522,31.522,0,0,1-17.756,17.756c-12.3,4.877-41.472,3.751-55.06,3.751s-42.806,1.084-55.06-3.751a31.522,31.522,0,0,1-17.756-17.756c-4.877-12.3-3.751-41.472-3.751-55.06s-1.084-42.806,3.751-55.06A31.522,31.522,0,0,1,38.372,22.817c12.3-4.877,41.472-3.751,55.06-3.751s42.806-1.084,55.06,3.751a31.522,31.522,0,0,1,17.756,17.756c4.877,12.3,3.751,41.472,3.751,55.06S171.124,138.438,166.247,150.692Z" transform="translate(0.005 -2.238)"/></svg>